# File created by Blade
# Date/Time:  Wed Jan 21 18:02:19 2015
# Frame Rate: 120.000 fps
#------------------------------------------------------
:FULLY-SPECIFIED
:DEGREES
899
root 16.968366 35.277548 -20.136785 -181.440294 -17.154449 -179.745851
Spine -4.883590 7.200256 -8.308178
Head 9.289670 -21.917864 3.464927
LeftShoulder -6.117008 -17.063224 0.236778
LeftArm -27.875748 4.020026 -69.360831
LeftForeArm -6.663811 -0.000000 1.837967
LeftHand -0.935444 -0.000000 1.939224
LeftHandThumb1 -26.253704 0.000000 33.147579
RightShoulder -9.127412 -10.382990 13.058966
RightArm 22.925721 -10.294148 61.053470
RightForeArm -26.268724 -0.000000 15.907634
RightHand -1.464387 -0.000000 0.162665
RightHandThumb1 -24.326973 -0.000000 -32.862282
LeftUpLeg -16.574083 0.956264 -2.068359
LeftLeg 28.718394 -0.000000 -0.000000
LeftFoot -28.688772 19.711036 -12.468091
LeftToeBase 19.767334 -0.000000 -0.000000
RightUpLeg 7.811856 -16.869018 2.843188
RightLeg 4.450135 -0.000000 -0.000000
RightFoot -33.618629 -33.873320 19.504760
RightToeBase 15.481519 -0.000000 -0.000000
900
root 16.829388 35.257873 -20.226681 -181.759863 -17.704419 -179.772768
Spine -4.965492 7.061670 -8.018607
Head 9.831142 -22.129623 2.773884
LeftShoulder -6.321065 -16.981370 0.103598
LeftArm -27.943720 4.522011 -69.422095
LeftForeArm -7.104098 0.000000 2.189787
LeftHand -0.910002 -0.000000 2.116456
LeftHandThumb1 -26.253704 0.000000 33.147579
RightShoulder -9.181597 -10.604265 12.781839
RightArm 22.122316 -9.646965 61.203641
RightForeArm -26.282325 0.000000 15.335060
RightHand -1.408617 -0.000000 0.403350
RightHandThumb1 -24.326973 -0.000000 -32.862282
LeftUpLeg -15.911046 0.712701 -2.161585
LeftLeg 27.958745 -0.000000 -0.000000
LeftFoot -26.244212 19.928797 -11.828007
LeftToeBase 19.377431 -0.000000 -0.000000
RightUpLeg 8.421998 -16.946665 2.563612
RightLeg 4.390127 -0.000000 -0.000000
RightFoot -33.872727 -34.243058 19.732133
RightToeBase 15.656244 -0.000000 -0.000000
901
root 16.685257 35.234368 -20.324568 -182.096545 -18.307426 -179.757986
Spine -5.059467 6.863810 -7.686960
Head 10.410852 -22.344735 2.106869
LeftShoulder -6.602138 -16.833451 0.020417
LeftArm -27.847213 4.651726 -69.299209
LeftForeArm -7.000801 -0.000000 2.434974
LeftHand -0.898113 -0.000000 2.165984
LeftHandThumb1 -26.253704 0.000000 33.147579
RightShoulder -9.281716 -10.855366 12.466731
RightArm 21.327070 -9.075457 61.315804
RightForeArm -25.970721 -0.000000 14.773556
RightHand -1.395579 -0.000000 0.442696
RightHandThumb1 -24.326973 -0.000000 -32.862282
LeftUpLeg -15.213570 0.420037 -2.238511
LeftLeg 27.179185 -0.000000 -0.000000
LeftFoot -23.701215 20.186399 -11.326858
LeftToeBase 18.957749 -0.000000 -0.000000
RightUpLeg 9.059484 -17.182695 2.281253
RightLeg 4.350075 -0.000000 -0.000000
RightFoot -34.100170 -34.452803 19.996881
RightToeBase 15.667132 -0.000000 -0.000000
902
root 16.539883 35.206732 -20.410947 -182.239038 -18.765393 -179.731101
Spine -5.442939 6.799238 -7.353249
Head 11.083230 -22.502635 1.363624
LeftShoulder -6.823436 -16.699778 -0.055394
LeftArm -27.808353 4.732838 -69.163635
LeftForeArm -6.912646 -0.000000 2.610866
LeftHand -0.789429 -0.000000 2.211013
LeftHandThumb1 -26.253704 0.000000 33.147579
RightShoulder -9.408370 -11.131015 12.069023
RightArm 20.453874 -8.487296 61.490925
RightForeArm -25.592837 -0.000000 14.239269
RightHand -1.378067 -0.000000 0.283342
RightHandThumb1 -24.326973 -0.000000 -32.862282
LeftUpLeg -14.713149 0.372520 -2.326026
LeftLeg 26.353233 -0.000000 -0.000000
LeftFoot -21.943353 20.332122 -10.963210
LeftToeBase 20.526610 -0.000000 -0.000000
RightUpLeg 9.375186 -16.947089 2.149462
RightLeg 4.458594 -0.000000 -0.000000
RightFoot -34.466801 -34.970405 20.214770
RightToeBase 15.998826 -0.000000 -0.000000
903
root 16.393804 35.174577 -20.508248 -182.501365 -19.320451 -179.626777
Spine -5.707899 6.607367 -6.917040
Head 11.723289 -22.584738 0.611351
LeftShoulder -7.147247 -16.576455 -0.091325
LeftArm -27.717336 4.788188 -69.028930
LeftForeArm -6.711249 -0.000000 2.822164
LeftHand -0.777011 -0.000000 2.236237
LeftHandThumb1 -26.253704 0.000000 33.147579
RightShoulder -9.545149 -11.450153 11.654441
RightArm 19.642017 -7.767372 61.643112
RightForeArm -25.227352 -0.000000 13.746935
RightHand -1.442037 0.000000 0.343274
RightHandThumb1 -24.326973 -0.000000 -32.862282
LeftUpLeg -14.077463 0.324617 -2.329805
LeftLeg 25.448186 -0.000000 -0.000000
LeftFoot -22.204925 20.139850 -11.292116
LeftToeBase 24.163937 -0.000000 -0.000000
RightUpLeg 9.791693 -17.074616 1.996846
RightLeg 4.666451 -0.000000 -0.000000
RightFoot -34.788455 -35.090651 20.461130
RightToeBase 16.122727 -0.000000 -0.000000
